<svg width="278" height="88" viewBox="0 0 278 88" fill="none" xmlns="http://www.w3.org/2000/svg">
<g filter="url(#filter0_d_2675_3889)">
<mask id="path-1-outside-1_2675_3889" maskUnits="userSpaceOnUse" x="4" y="2" width="274" height="82" fill="black">
<rect fill="white" x="4" y="2" width="274" height="82"/>
<path d="M15.92 7.6H27.6C29.12 7.6 30.4267 8 31.52 8.8C32.6133 9.57333 33.44 10.5867 34 11.84C34.5867 13.0933 34.88 14.4133 34.88 15.8C34.88 17.1867 34.5867 18.56 34 19.92C33.4133 21.28 32.6 22.52 31.56 23.64C30.52 24.7333 29.32 25.6133 27.96 26.28C26.6 26.9467 25.1467 27.28 23.6 27.28H19.52L17.68 36H9.88L15.92 7.6ZM24.52 20.48C24.76 20.48 25.0133 20.4 25.28 20.24C25.5467 20.08 25.8 19.84 26.04 19.52C26.3067 19.1733 26.5067 18.7467 26.64 18.24C26.8 17.7333 26.88 17.1333 26.88 16.44C26.88 15.9067 26.8133 15.4933 26.68 15.2C26.5467 14.9067 26.3867 14.7067 26.2 14.6C26.0133 14.4667 25.8133 14.4 25.6 14.4H22.28L21 20.48H24.52ZM41.1825 7.6H48.9825L44.3825 29.2H56.3425L54.9025 36H35.1425L41.1825 7.6ZM71.8406 7.6H79.0006L82.1606 36H74.2406L73.9606 30.44H67.1606L64.5606 36H56.6006L71.8406 7.6ZM73.8406 25.24L73.5206 16.44L69.4006 25.24H73.8406ZM93.2131 14.4H85.5731L87.0131 7.6H110.053L108.613 14.4H101.013L96.4131 36H88.6131L93.2131 14.4ZM114.158 7.6H133.118L131.678 14.4H120.518L119.678 18.4H129.198L127.838 24.72H118.318L117.358 29.2H128.878L127.438 36H108.118L114.158 7.6ZM138.365 7.6H156.925L155.485 14.4H144.725L143.725 19.12H152.445L151.125 25.44H142.365L140.125 36H132.325L138.365 7.6ZM167.367 36.24C165.607 36.24 164.034 35.92 162.647 35.28C161.287 34.6133 160.14 33.72 159.207 32.6C158.274 31.48 157.567 30.2133 157.087 28.8C156.607 27.36 156.367 25.8667 156.367 24.32C156.367 22.6133 156.66 20.9333 157.247 19.28C157.86 17.6267 158.7 16.0933 159.767 14.68C160.86 13.24 162.127 11.9867 163.567 10.92C165.034 9.82667 166.62 8.97333 168.327 8.36C170.034 7.74666 171.807 7.44 173.647 7.44C175.407 7.44 176.967 7.77333 178.327 8.44C179.687 9.08 180.834 9.96 181.767 11.08C182.7 12.2 183.394 13.48 183.847 14.92C184.327 16.3333 184.567 17.8133 184.567 19.36C184.567 21.0667 184.26 22.7467 183.647 24.4C183.06 26.0267 182.234 27.56 181.167 29C180.1 30.4133 178.847 31.6667 177.407 32.76C175.967 33.8533 174.394 34.7067 172.687 35.32C170.98 35.9333 169.207 36.24 167.367 36.24ZM168.887 29.32C170.167 29.32 171.287 29.0267 172.247 28.44C173.207 27.8533 174.007 27.0933 174.647 26.16C175.314 25.2 175.807 24.1733 176.127 23.08C176.447 21.9867 176.607 20.92 176.607 19.88C176.607 18.8933 176.447 17.9867 176.127 17.16C175.834 16.3067 175.354 15.6267 174.687 15.12C174.02 14.6133 173.14 14.36 172.047 14.36C170.794 14.36 169.687 14.6533 168.727 15.24C167.767 15.8 166.967 16.5467 166.327 17.48C165.687 18.4133 165.194 19.4267 164.847 20.52C164.527 21.6133 164.367 22.68 164.367 23.72C164.367 24.7067 164.514 25.6267 164.807 26.48C165.127 27.3333 165.62 28.0267 166.287 28.56C166.954 29.0667 167.82 29.32 168.887 29.32ZM185.858 36L191.898 7.6H204.378C205.925 7.6 207.231 8 208.298 8.8C209.391 9.57333 210.218 10.5867 210.778 11.84C211.365 13.0933 211.658 14.4133 211.658 15.8C211.658 16.7333 211.525 17.6667 211.258 18.6C210.991 19.5067 210.605 20.3867 210.098 21.24C209.618 22.0933 209.031 22.8933 208.338 23.64C207.645 24.36 206.871 25 206.018 25.56L209.418 36H200.618L197.858 27.28H195.498L193.658 36H185.858ZM201.298 20.48C201.511 20.48 201.751 20.3867 202.018 20.2C202.285 20.0133 202.538 19.7467 202.778 19.4C203.018 19.0533 203.218 18.64 203.378 18.16C203.538 17.68 203.618 17.16 203.618 16.6C203.618 16.12 203.551 15.72 203.418 15.4C203.311 15.08 203.165 14.84 202.978 14.68C202.791 14.4933 202.591 14.4 202.378 14.4H198.258L196.978 20.48H201.298ZM219.231 7.6H227.751L230.351 20.96L238.671 7.6H247.151L241.111 36H233.311L236.471 21.04L230.151 31.56H226.031L224.191 21.04L220.991 36H213.191L219.231 7.6ZM253.243 7.6H272.203L270.763 14.4H259.603L258.763 18.4H268.283L266.923 24.72H257.403L256.443 29.2H267.963L266.523 36H247.203L253.243 7.6ZM15.92 50.6H26.4C28.9067 50.6 30.9733 51.0933 32.6 52.08C34.2267 53.0667 35.44 54.4 36.24 56.08C37.04 57.7333 37.44 59.6 37.44 61.68C37.44 64.1867 37.0133 66.4933 36.16 68.6C35.3067 70.7067 34.1067 72.5467 32.56 74.12C31.0133 75.6667 29.2 76.8667 27.12 77.72C25.04 78.5733 22.7867 79 20.36 79H9.88L15.92 50.6ZM21.8 72.2C22.92 72.2 23.9467 71.9467 24.88 71.44C25.8133 70.9333 26.6133 70.2533 27.28 69.4C27.9467 68.52 28.4667 67.52 28.84 66.4C29.2133 65.2533 29.4 64.0533 29.4 62.8C29.4 61.7067 29.2267 60.76 28.88 59.96C28.56 59.16 28.0667 58.5333 27.4 58.08C26.7333 57.6267 25.92 57.4 24.96 57.4H22.28L19.12 72.2H21.8ZM44.8544 50.6H63.8144L62.3744 57.4H51.2144L50.3744 61.4H59.8944L58.5344 67.72H49.0144L48.0544 72.2H59.5744L58.1344 79H38.8144L44.8544 50.6ZM69.0622 50.6H76.8622L72.2622 72.2H84.2222L82.7822 79H63.0222L69.0622 50.6ZM92.8403 50.6H100.64L94.6003 79H86.8003L92.8403 50.6ZM113.616 50.6H120.776L123.936 79H116.016L115.736 73.44H108.936L106.336 79H98.3756L113.616 50.6ZM115.616 68.24L115.296 59.44L111.176 68.24H115.616Z"/>
</mask>
<path d="M15.92 7.6H27.6C29.12 7.6 30.4267 8 31.52 8.8C32.6133 9.57333 33.44 10.5867 34 11.84C34.5867 13.0933 34.88 14.4133 34.88 15.8C34.88 17.1867 34.5867 18.56 34 19.92C33.4133 21.28 32.6 22.52 31.56 23.64C30.52 24.7333 29.32 25.6133 27.96 26.28C26.6 26.9467 25.1467 27.28 23.6 27.28H19.52L17.68 36H9.88L15.92 7.6ZM24.52 20.48C24.76 20.48 25.0133 20.4 25.28 20.24C25.5467 20.08 25.8 19.84 26.04 19.52C26.3067 19.1733 26.5067 18.7467 26.64 18.24C26.8 17.7333 26.88 17.1333 26.88 16.44C26.88 15.9067 26.8133 15.4933 26.68 15.2C26.5467 14.9067 26.3867 14.7067 26.2 14.6C26.0133 14.4667 25.8133 14.4 25.6 14.4H22.28L21 20.48H24.52ZM41.1825 7.6H48.9825L44.3825 29.2H56.3425L54.9025 36H35.1425L41.1825 7.6ZM71.8406 7.6H79.0006L82.1606 36H74.2406L73.9606 30.44H67.1606L64.5606 36H56.6006L71.8406 7.6ZM73.8406 25.24L73.5206 16.44L69.4006 25.24H73.8406ZM93.2131 14.4H85.5731L87.0131 7.6H110.053L108.613 14.4H101.013L96.4131 36H88.6131L93.2131 14.4ZM114.158 7.6H133.118L131.678 14.4H120.518L119.678 18.4H129.198L127.838 24.72H118.318L117.358 29.2H128.878L127.438 36H108.118L114.158 7.6ZM138.365 7.6H156.925L155.485 14.4H144.725L143.725 19.12H152.445L151.125 25.44H142.365L140.125 36H132.325L138.365 7.6ZM167.367 36.24C165.607 36.24 164.034 35.92 162.647 35.28C161.287 34.6133 160.14 33.72 159.207 32.6C158.274 31.48 157.567 30.2133 157.087 28.8C156.607 27.36 156.367 25.8667 156.367 24.32C156.367 22.6133 156.66 20.9333 157.247 19.28C157.86 17.6267 158.7 16.0933 159.767 14.68C160.86 13.24 162.127 11.9867 163.567 10.92C165.034 9.82667 166.62 8.97333 168.327 8.36C170.034 7.74666 171.807 7.44 173.647 7.44C175.407 7.44 176.967 7.77333 178.327 8.44C179.687 9.08 180.834 9.96 181.767 11.08C182.7 12.2 183.394 13.48 183.847 14.92C184.327 16.3333 184.567 17.8133 184.567 19.36C184.567 21.0667 184.26 22.7467 183.647 24.4C183.06 26.0267 182.234 27.56 181.167 29C180.1 30.4133 178.847 31.6667 177.407 32.76C175.967 33.8533 174.394 34.7067 172.687 35.32C170.98 35.9333 169.207 36.24 167.367 36.24ZM168.887 29.32C170.167 29.32 171.287 29.0267 172.247 28.44C173.207 27.8533 174.007 27.0933 174.647 26.16C175.314 25.2 175.807 24.1733 176.127 23.08C176.447 21.9867 176.607 20.92 176.607 19.88C176.607 18.8933 176.447 17.9867 176.127 17.16C175.834 16.3067 175.354 15.6267 174.687 15.12C174.02 14.6133 173.14 14.36 172.047 14.36C170.794 14.36 169.687 14.6533 168.727 15.24C167.767 15.8 166.967 16.5467 166.327 17.48C165.687 18.4133 165.194 19.4267 164.847 20.52C164.527 21.6133 164.367 22.68 164.367 23.72C164.367 24.7067 164.514 25.6267 164.807 26.48C165.127 27.3333 165.62 28.0267 166.287 28.56C166.954 29.0667 167.82 29.32 168.887 29.32ZM185.858 36L191.898 7.6H204.378C205.925 7.6 207.231 8 208.298 8.8C209.391 9.57333 210.218 10.5867 210.778 11.84C211.365 13.0933 211.658 14.4133 211.658 15.8C211.658 16.7333 211.525 17.6667 211.258 18.6C210.991 19.5067 210.605 20.3867 210.098 21.24C209.618 22.0933 209.031 22.8933 208.338 23.64C207.645 24.36 206.871 25 206.018 25.56L209.418 36H200.618L197.858 27.28H195.498L193.658 36H185.858ZM201.298 20.48C201.511 20.48 201.751 20.3867 202.018 20.2C202.285 20.0133 202.538 19.7467 202.778 19.4C203.018 19.0533 203.218 18.64 203.378 18.16C203.538 17.68 203.618 17.16 203.618 16.6C203.618 16.12 203.551 15.72 203.418 15.4C203.311 15.08 203.165 14.84 202.978 14.68C202.791 14.4933 202.591 14.4 202.378 14.4H198.258L196.978 20.48H201.298ZM219.231 7.6H227.751L230.351 20.96L238.671 7.6H247.151L241.111 36H233.311L236.471 21.04L230.151 31.56H226.031L224.191 21.04L220.991 36H213.191L219.231 7.6ZM253.243 7.6H272.203L270.763 14.4H259.603L258.763 18.4H268.283L266.923 24.72H257.403L256.443 29.2H267.963L266.523 36H247.203L253.243 7.6ZM15.92 50.6H26.4C28.9067 50.6 30.9733 51.0933 32.6 52.08C34.2267 53.0667 35.44 54.4 36.24 56.08C37.04 57.7333 37.44 59.6 37.44 61.68C37.44 64.1867 37.0133 66.4933 36.16 68.6C35.3067 70.7067 34.1067 72.5467 32.56 74.12C31.0133 75.6667 29.2 76.8667 27.12 77.72C25.04 78.5733 22.7867 79 20.36 79H9.88L15.92 50.6ZM21.8 72.2C22.92 72.2 23.9467 71.9467 24.88 71.44C25.8133 70.9333 26.6133 70.2533 27.28 69.4C27.9467 68.52 28.4667 67.52 28.84 66.4C29.2133 65.2533 29.4 64.0533 29.4 62.8C29.4 61.7067 29.2267 60.76 28.88 59.96C28.56 59.16 28.0667 58.5333 27.4 58.08C26.7333 57.6267 25.92 57.4 24.96 57.4H22.28L19.12 72.2H21.8ZM44.8544 50.6H63.8144L62.3744 57.4H51.2144L50.3744 61.4H59.8944L58.5344 67.72H49.0144L48.0544 72.2H59.5744L58.1344 79H38.8144L44.8544 50.6ZM69.0622 50.6H76.8622L72.2622 72.2H84.2222L82.7822 79H63.0222L69.0622 50.6ZM92.8403 50.6H100.64L94.6003 79H86.8003L92.8403 50.6ZM113.616 50.6H120.776L123.936 79H116.016L115.736 73.44H108.936L106.336 79H98.3756L113.616 50.6ZM115.616 68.24L115.296 59.44L111.176 68.24H115.616Z" fill="#4D37CD"/>
<path d="M15.92 7.6V2.6C13.5594 2.6 11.5204 4.25095 11.0294 6.55988L15.92 7.6ZM31.52 8.8L28.5675 12.8352C28.5891 12.851 28.6108 12.8666 28.6327 12.8821L31.52 8.8ZM34 11.84L29.435 13.8797C29.4469 13.9065 29.4591 13.9331 29.4715 13.9597L34 11.84ZM31.56 23.64L35.1828 27.0861C35.1966 27.0715 35.2103 27.0569 35.224 27.0423L31.56 23.64ZM27.96 26.28L25.7592 21.7904L27.96 26.28ZM19.52 27.28V22.28C17.1564 22.28 15.1157 23.935 14.6277 26.2477L19.52 27.28ZM17.68 36V41C20.0436 41 22.0843 39.345 22.5723 37.0323L17.68 36ZM9.88 36L4.98938 34.9599C4.67555 36.4355 5.04476 37.9739 5.99409 39.1464C6.94342 40.3188 8.37139 41 9.88 41V36ZM25.28 20.24L22.7075 15.9525L22.7075 15.9525L25.28 20.24ZM26.04 19.52L22.0769 16.4714C22.0645 16.4876 22.0522 16.5037 22.04 16.52L26.04 19.52ZM26.64 18.24L21.8721 16.7343C21.8477 16.8115 21.8252 16.8893 21.8046 16.9675L26.64 18.24ZM26.68 15.2L31.2318 13.131L31.2318 13.131L26.68 15.2ZM26.2 14.6L23.2938 18.6687C23.431 18.7666 23.573 18.8576 23.7193 18.9412L26.2 14.6ZM22.28 14.4V9.4C19.9156 9.4 17.8744 11.0562 17.3873 13.3699L22.28 14.4ZM21 20.48L16.1073 19.4499C15.7968 20.9244 16.1679 22.4603 17.1173 23.6304C18.0667 24.8005 19.4932 25.48 21 25.48V20.48ZM15.92 12.6H27.6V2.6H15.92V12.6ZM27.6 12.6C28.1938 12.6 28.4342 12.7376 28.5675 12.8352L34.4726 4.76485C32.4192 3.26238 30.0462 2.6 27.6 2.6V12.6ZM28.6327 12.8821C28.9747 13.124 29.2313 13.4238 29.435 13.8797L38.565 9.8003C37.6488 7.74955 36.252 6.02269 34.4073 4.71792L28.6327 12.8821ZM29.4715 13.9597C29.747 14.5481 29.88 15.1444 29.88 15.8H39.88C39.88 13.6823 39.4263 11.6385 38.5285 9.7203L29.4715 13.9597ZM29.88 15.8C29.88 16.46 29.7445 17.1617 29.4089 17.9395L38.5911 21.9005C39.4289 19.9583 39.88 17.9133 39.88 15.8H29.88ZM29.4089 17.9395C29.0552 18.7596 28.5608 19.5219 27.896 20.2377L35.224 27.0423C36.6392 25.5181 37.7715 23.8004 38.5911 21.9005L29.4089 17.9395ZM27.9372 20.1939C27.3072 20.8563 26.5892 21.3836 25.7592 21.7904L30.1608 30.7696C32.0508 29.8431 33.7328 28.6104 35.1828 27.0861L27.9372 20.1939ZM25.7592 21.7904C25.0991 22.114 24.4004 22.28 23.6 22.28V32.28C25.8929 32.28 28.1009 31.7794 30.1608 30.7696L25.7592 21.7904ZM23.6 22.28H19.52V32.28H23.6V22.28ZM14.6277 26.2477L12.7877 34.9677L22.5723 37.0323L24.4123 28.3123L14.6277 26.2477ZM17.68 31H9.88V41H17.68V31ZM14.7706 37.0401L20.8106 8.64012L11.0294 6.55988L4.98938 34.9599L14.7706 37.0401ZM24.52 25.48C25.897 25.48 27.0339 25.0186 27.8525 24.5275L22.7075 15.9525C22.9928 15.7814 23.623 15.48 24.52 15.48V25.48ZM27.8525 24.5275C28.8077 23.9544 29.5181 23.2159 30.04 22.52L22.04 16.52C22.0819 16.4641 22.2857 16.2056 22.7075 15.9525L27.8525 24.5275ZM30.0031 22.5686C30.7479 21.6003 31.2054 20.5385 31.4754 19.5125L21.8046 16.9675C21.808 16.9549 21.8654 16.7463 22.0769 16.4714L30.0031 22.5686ZM31.4079 19.7457C31.7604 18.6294 31.88 17.4975 31.88 16.44H21.88C21.88 16.5967 21.8708 16.697 21.8639 16.7492C21.8569 16.8014 21.854 16.7916 21.8721 16.7343L31.4079 19.7457ZM31.88 16.44C31.88 15.6019 31.7926 14.3647 31.2318 13.131L22.1282 17.269C21.9652 16.9104 21.9114 16.6355 21.8938 16.5262C21.875 16.4097 21.88 16.3716 21.88 16.44H31.88ZM31.2318 13.131C30.8691 12.3329 30.1317 11.0879 28.6807 10.2588L23.7193 18.9412C22.6417 18.3254 22.2243 17.4804 22.1282 17.269L31.2318 13.131ZM29.1062 10.5313C28.1389 9.84044 26.9354 9.4 25.6 9.4V19.4C24.6913 19.4 23.8877 19.0929 23.2938 18.6687L29.1062 10.5313ZM25.6 9.4H22.28V19.4H25.6V9.4ZM17.3873 13.3699L16.1073 19.4499L25.8927 21.5101L27.1727 15.4301L17.3873 13.3699ZM21 25.48H24.52V15.48H21V25.48ZM41.1825 7.6V2.6C38.8219 2.6 36.7829 4.25095 36.2919 6.55988L41.1825 7.6ZM48.9825 7.6L53.8728 8.64146C54.1871 7.1657 53.8182 5.62694 52.8688 4.45415C51.9195 3.28137 50.4914 2.6 48.9825 2.6V7.6ZM44.3825 29.2L39.4922 28.1585C39.1779 29.6343 39.5468 31.1731 40.4962 32.3458C41.4455 33.5186 42.8736 34.2 44.3825 34.2V29.2ZM56.3425 29.2L61.234 30.2359C61.5464 28.7607 61.1764 27.2234 60.227 26.0519C59.2777 24.8805 57.8503 24.2 56.3425 24.2V29.2ZM54.9025 36V41C57.2647 41 59.3046 39.3468 59.794 37.0359L54.9025 36ZM35.1425 36L30.2519 34.9599C29.9381 36.4355 30.3073 37.9739 31.2566 39.1464C32.2059 40.3188 33.6339 41 35.1425 41V36ZM41.1825 12.6H48.9825V2.6H41.1825V12.6ZM44.0922 6.55854L39.4922 28.1585L49.2728 30.2415L53.8728 8.64146L44.0922 6.55854ZM44.3825 34.2H56.3425V24.2H44.3825V34.2ZM51.451 28.1641L50.011 34.9641L59.794 37.0359L61.234 30.2359L51.451 28.1641ZM54.9025 31H35.1425V41H54.9025V31ZM40.0331 37.0401L46.0731 8.64012L36.2919 6.55988L30.2519 34.9599L40.0331 37.0401ZM71.8406 7.6V2.6C69.9987 2.6 68.3059 3.61274 67.4349 5.23579L71.8406 7.6ZM79.0006 7.6L83.97 7.04707C83.6882 4.51525 81.5481 2.6 79.0006 2.6V7.6ZM82.1606 36V41C83.583 41 84.938 40.3942 85.8865 39.3343C86.835 38.2744 87.2873 36.8607 87.13 35.4471L82.1606 36ZM74.2406 36L69.247 36.2515C69.3809 38.9118 71.577 41 74.2406 41V36ZM73.9606 30.44L78.9543 30.1885C78.8203 27.5282 76.6243 25.44 73.9606 25.44V30.44ZM67.1606 30.44V25.44C65.2194 25.44 63.4537 26.5636 62.6314 28.322L67.1606 30.44ZM64.5606 36V41C66.5018 41 68.2676 39.8764 69.0899 38.118L64.5606 36ZM56.6006 36L52.1949 33.6358C51.3634 35.1854 51.407 37.0579 52.3099 38.567C53.2127 40.0761 54.842 41 56.6006 41V36ZM73.8406 25.24V30.24C75.1982 30.24 76.4975 29.688 77.4398 28.7107C78.3822 27.7334 78.8867 26.415 78.8373 25.0583L73.8406 25.24ZM73.5206 16.44L78.5173 16.2583C78.4334 13.9508 76.7803 12.0009 74.5177 11.5404C72.2551 11.08 69.9714 12.2288 68.9923 14.3199L73.5206 16.44ZM69.4006 25.24L64.8723 23.1199C64.1473 24.6686 64.2639 26.4804 65.1816 27.9233C66.0993 29.3661 67.6907 30.24 69.4006 30.24V25.24ZM71.8406 12.6H79.0006V2.6H71.8406V12.6ZM74.0313 8.15292L77.1913 36.5529L87.13 35.4471L83.97 7.04707L74.0313 8.15292ZM82.1606 31H74.2406V41H82.1606V31ZM79.2343 35.7485L78.9543 30.1885L68.967 30.6915L69.247 36.2515L79.2343 35.7485ZM73.9606 25.44H67.1606V35.44H73.9606V25.44ZM62.6314 28.322L60.0314 33.882L69.0899 38.118L71.6899 32.558L62.6314 28.322ZM64.5606 31H56.6006V41H64.5606V31ZM61.0064 38.3642L76.2464 9.9642L67.4349 5.23579L52.1949 33.6358L61.0064 38.3642ZM78.8373 25.0583L78.5173 16.2583L68.5239 16.6217L68.8439 25.4217L78.8373 25.0583ZM68.9923 14.3199L64.8723 23.1199L73.9289 27.3601L78.0489 18.5601L68.9923 14.3199ZM69.4006 30.24H73.8406V20.24H69.4006V30.24ZM93.2131 14.4L98.1035 15.4415C98.4177 13.9657 98.0488 12.4269 97.0995 11.2542C96.1501 10.0814 94.722 9.4 93.2131 9.4V14.4ZM85.5731 14.4L80.6816 13.3641C80.3692 14.8393 80.7392 16.3766 81.6886 17.5481C82.6379 18.7195 84.0653 19.4 85.5731 19.4V14.4ZM87.0131 7.6V2.6C84.6509 2.6 82.611 4.25318 82.1216 6.56415L87.0131 7.6ZM110.053 7.6L114.945 8.63585C115.257 7.16071 114.887 5.62338 113.938 4.45192C112.988 3.28047 111.561 2.6 110.053 2.6V7.6ZM108.613 14.4V19.4C110.975 19.4 113.015 17.7468 113.505 15.4359L108.613 14.4ZM101.013 14.4V9.4C98.6531 9.4 96.6144 11.0502 96.1228 13.3585L101.013 14.4ZM96.4131 36V41C98.7732 41 100.812 39.3498 101.303 37.0415L96.4131 36ZM88.6131 36L83.7228 34.9585C83.4085 36.4343 83.7775 37.9731 84.7268 39.1458C85.6761 40.3186 87.1043 41 88.6131 41V36ZM93.2131 9.4H85.5731V19.4H93.2131V9.4ZM90.4646 15.4359L91.9046 8.63585L82.1216 6.56415L80.6816 13.3641L90.4646 15.4359ZM87.0131 12.6H110.053V2.6H87.0131V12.6ZM105.162 6.56415L103.722 13.3641L113.505 15.4359L114.945 8.63585L105.162 6.56415ZM108.613 9.4H101.013V19.4H108.613V9.4ZM96.1228 13.3585L91.5228 34.9585L101.303 37.0415L105.903 15.4415L96.1228 13.3585ZM96.4131 31H88.6131V41H96.4131V31ZM93.5035 37.0415L98.1035 15.4415L88.3228 13.3585L83.7228 34.9585L93.5035 37.0415ZM114.158 7.6V2.6C111.797 2.6 109.758 4.25095 109.267 6.55988L114.158 7.6ZM133.118 7.6L138.009 8.63585C138.321 7.16072 137.951 5.62338 137.002 4.45192C136.053 3.28047 134.625 2.6 133.118 2.6V7.6ZM131.678 14.4V19.4C134.04 19.4 136.08 17.7468 136.569 15.4359L131.678 14.4ZM120.518 14.4V9.4C118.152 9.4 116.11 11.0575 115.624 13.3724L120.518 14.4ZM119.678 18.4L114.784 17.3724C114.475 18.8466 114.846 20.3818 115.796 21.5514C116.745 22.7209 118.171 23.4 119.678 23.4V18.4ZM129.198 18.4L134.086 19.4519C134.403 17.975 134.036 16.4335 133.087 15.2583C132.138 14.083 130.708 13.4 129.198 13.4V18.4ZM127.838 24.72V29.72C130.194 29.72 132.23 28.0752 132.726 25.7719L127.838 24.72ZM118.318 24.72V19.72C115.96 19.72 113.922 21.367 113.428 23.6724L118.318 24.72ZM117.358 29.2L112.468 28.1524C112.152 29.6288 112.52 31.1691 113.469 32.3434C114.418 33.5176 115.848 34.2 117.358 34.2V29.2ZM128.878 29.2L133.769 30.2359C134.081 28.7607 133.711 27.2234 132.762 26.0519C131.813 24.8805 130.385 24.2 128.878 24.2V29.2ZM127.438 36V41C129.8 41 131.84 39.3468 132.329 37.0359L127.438 36ZM108.118 36L103.227 34.9599C102.913 36.4355 103.282 37.9739 104.232 39.1464C105.181 40.3188 106.609 41 108.118 41V36ZM114.158 12.6H133.118V2.6H114.158V12.6ZM128.226 6.56415L126.786 13.3641L136.569 15.4359L138.009 8.63585L128.226 6.56415ZM131.678 9.4H120.518V19.4H131.678V9.4ZM115.624 13.3724L114.784 17.3724L124.571 19.4276L125.411 15.4276L115.624 13.3724ZM119.678 23.4H129.198V13.4H119.678V23.4ZM124.309 17.3481L122.949 23.6681L132.726 25.7719L134.086 19.4519L124.309 17.3481ZM127.838 19.72H118.318V29.72H127.838V19.72ZM113.428 23.6724L112.468 28.1524L122.247 30.2476L123.207 25.7676L113.428 23.6724ZM117.358 34.2H128.878V24.2H117.358V34.2ZM123.986 28.1641L122.546 34.9641L132.329 37.0359L133.769 30.2359L123.986 28.1641ZM127.438 31H108.118V41H127.438V31ZM113.008 37.0401L119.048 8.64012L109.267 6.55988L103.227 34.9599L113.008 37.0401ZM138.365 7.6V2.6C136.005 2.6 133.966 4.25095 133.475 6.55988L138.365 7.6ZM156.925 7.6L161.817 8.63585C162.129 7.16072 161.759 5.62338 160.81 4.45192C159.86 3.28047 158.433 2.6 156.925 2.6V7.6ZM155.485 14.4V19.4C157.848 19.4 159.887 17.7468 160.377 15.4359L155.485 14.4ZM144.725 14.4V9.4C142.363 9.4 140.323 11.0529 139.834 13.3637L144.725 14.4ZM143.725 19.12L138.834 18.0837C138.521 19.5589 138.891 21.0963 139.841 22.2679C140.79 23.4395 142.217 24.12 143.725 24.12V19.12ZM152.445 19.12L157.34 20.1422C157.647 18.6686 157.275 17.1348 156.325 15.9665C155.376 14.7983 153.951 14.12 152.445 14.12V19.12ZM151.125 25.44V30.44C153.493 30.44 155.536 28.7797 156.02 26.4622L151.125 25.44ZM142.365 25.44V20.44C140.004 20.44 137.964 22.0923 137.474 24.4025L142.365 25.44ZM140.125 36V41C142.487 41 144.526 39.3477 145.016 37.0375L140.125 36ZM132.325 36L127.435 34.9599C127.121 36.4355 127.49 37.9739 128.439 39.1464C129.389 40.3188 130.817 41 132.325 41V36ZM138.365 12.6H156.925V2.6H138.365V12.6ZM152.034 6.56415L150.594 13.3641L160.377 15.4359L161.817 8.63585L152.034 6.56415ZM155.485 9.4H144.725V19.4H155.485V9.4ZM139.834 13.3637L138.834 18.0837L148.617 20.1563L149.617 15.4363L139.834 13.3637ZM143.725 24.12H152.445V14.12H143.725V24.12ZM147.551 18.0978L146.231 24.4178L156.02 26.4622L157.34 20.1422L147.551 18.0978ZM151.125 20.44H142.365V30.44H151.125V20.44ZM137.474 24.4025L135.234 34.9625L145.016 37.0375L147.256 26.4775L137.474 24.4025ZM140.125 31H132.325V41H140.125V31ZM137.216 37.0401L143.256 8.64012L133.475 6.55988L127.435 34.9599L137.216 37.0401ZM162.647 35.28L160.446 39.7696C160.481 39.7867 160.516 39.8035 160.552 39.8198L162.647 35.28ZM159.207 32.6L163.048 29.3991L159.207 32.6ZM157.087 28.8L152.343 30.3811C152.346 30.3901 152.349 30.399 152.352 30.4079L157.087 28.8ZM157.247 19.28L152.559 17.541C152.551 17.5632 152.543 17.5856 152.535 17.608L157.247 19.28ZM159.767 14.68L155.785 11.6565C155.782 11.6603 155.779 11.6641 155.776 11.668L159.767 14.68ZM163.567 10.92L166.543 14.9378C166.547 14.9348 166.551 14.9318 166.555 14.9287L163.567 10.92ZM178.327 8.44L176.126 12.9296C176.15 12.9413 176.174 12.9528 176.198 12.9641L178.327 8.44ZM181.767 11.08L185.608 7.87908V7.87908L181.767 11.08ZM183.847 14.92L179.078 16.4214C179.089 16.4571 179.1 16.4925 179.112 16.5279L183.847 14.92ZM183.647 24.4L178.959 22.661C178.954 22.6752 178.949 22.6894 178.943 22.7037L183.647 24.4ZM181.167 29L185.158 32.012C185.167 32.0001 185.176 31.9881 185.185 31.9761L181.167 29ZM177.407 32.76L180.43 36.7422L177.407 32.76ZM172.687 35.32L174.378 40.0254V40.0254L172.687 35.32ZM172.247 28.44L169.64 24.1736V24.1736L172.247 28.44ZM174.647 26.16L170.54 23.308C170.534 23.3161 170.529 23.3242 170.523 23.3324L174.647 26.16ZM176.127 23.08L171.328 21.6755V21.6755L176.127 23.08ZM176.127 17.16L171.398 18.7854C171.419 18.8457 171.441 18.9055 171.464 18.965L176.127 17.16ZM174.687 15.12L171.661 19.1008L174.687 15.12ZM168.727 15.24L171.246 19.5589C171.276 19.5417 171.305 19.5242 171.334 19.5064L168.727 15.24ZM166.327 17.48L162.203 14.6524V14.6524L166.327 17.48ZM164.847 20.52L160.081 19.0088C160.069 19.0442 160.059 19.0798 160.048 19.1155L164.847 20.52ZM164.807 26.48L160.078 28.1054C160.093 28.149 160.109 28.1924 160.125 28.2356L164.807 26.48ZM166.287 28.56L163.163 32.4643C163.196 32.4902 163.228 32.5157 163.261 32.5408L166.287 28.56ZM167.367 31.24C166.22 31.24 165.379 31.0341 164.742 30.7402L160.552 39.8198C162.688 40.8059 164.993 41.24 167.367 41.24V31.24ZM164.848 30.7904C164.094 30.4209 163.514 29.9579 163.048 29.3991L155.366 35.8009C156.767 37.4821 158.48 38.8058 160.446 39.7696L164.848 30.7904ZM163.048 29.3991C162.517 28.762 162.109 28.0382 161.821 27.1921L152.352 30.4079C153.025 32.3885 154.03 34.198 155.366 35.8009L163.048 29.3991ZM161.83 27.2189C161.523 26.2984 161.367 25.3396 161.367 24.32H151.367C151.367 26.3937 151.69 28.4216 152.343 30.3811L161.83 27.2189ZM161.367 24.32C161.367 23.1989 161.557 22.0837 161.959 20.952L152.535 17.608C151.763 19.7829 151.367 22.0277 151.367 24.32H161.367ZM161.935 21.019C162.378 19.8236 162.983 18.7188 163.758 17.692L155.776 11.668C154.418 13.4679 153.342 15.4298 152.559 17.541L161.935 21.019ZM163.749 17.7035C164.558 16.6375 165.487 15.7198 166.543 14.9378L160.591 6.90221C158.767 8.25348 157.162 9.84245 155.785 11.6565L163.749 17.7035ZM166.555 14.9287C167.63 14.1278 168.78 13.5103 170.018 13.0654L166.636 3.65462C164.461 4.43634 162.437 5.52557 160.579 6.91127L166.555 14.9287ZM170.018 13.0654C171.174 12.6499 172.375 12.44 173.647 12.44V2.44C171.239 2.44 168.893 2.84346 166.636 3.65462L170.018 13.0654ZM173.647 12.44C174.767 12.44 175.554 12.6491 176.126 12.9296L180.528 3.9504C178.38 2.89754 176.046 2.44 173.647 2.44V12.44ZM176.198 12.9641C176.918 13.3032 177.474 13.7393 177.926 14.2809L185.608 7.87908C184.193 6.18074 182.455 4.8568 180.456 3.91591L176.198 12.9641ZM177.926 14.2809C178.427 14.8825 178.813 15.5805 179.078 16.4214L188.616 13.4186C187.974 11.3795 186.973 9.5175 185.608 7.87908L177.926 14.2809ZM179.112 16.5279C179.41 17.4048 179.567 18.3402 179.567 19.36H189.567C189.567 17.2865 189.243 15.2619 188.581 13.3121L179.112 16.5279ZM179.567 19.36C179.567 20.4533 179.373 21.5454 178.959 22.661L188.335 26.139C189.148 23.9479 189.567 21.68 189.567 19.36H179.567ZM178.943 22.7037C178.528 23.8562 177.937 24.9605 177.149 26.0239L185.185 31.9761C186.53 30.1595 187.593 28.1971 188.35 26.0963L178.943 22.7037ZM177.176 25.988C176.392 27.0273 175.466 27.956 174.383 28.7778L180.43 36.7422C182.228 35.3773 183.809 33.7993 185.158 32.012L177.176 25.988ZM174.383 28.7778C173.349 29.5628 172.226 30.1727 170.996 30.6146L174.378 40.0254C176.561 39.2407 178.584 38.1439 180.43 36.7422L174.383 28.7778ZM170.996 30.6146C169.84 31.0301 168.639 31.24 167.367 31.24V41.24C169.775 41.24 172.121 40.8365 174.378 40.0254L170.996 30.6146ZM168.887 34.32C170.957 34.32 173.005 33.8362 174.854 32.7064L169.64 24.1736C169.568 24.2172 169.376 24.32 168.887 24.32V34.32ZM174.854 32.7064C176.419 31.7501 177.734 30.4985 178.771 28.9876L170.523 23.3324C170.279 23.6881 169.995 23.9565 169.64 24.1736L174.854 32.7064ZM178.754 29.012C179.719 27.6215 180.45 26.1078 180.926 24.4845L171.328 21.6755C171.163 22.2388 170.908 22.7785 170.54 23.308L178.754 29.012ZM180.926 24.4845C181.366 22.9781 181.607 21.4383 181.607 19.88H171.607C171.607 20.4017 171.527 20.9953 171.328 21.6755L180.926 24.4845ZM181.607 19.88C181.607 18.3456 181.356 16.8189 180.79 15.355L171.464 18.965C171.537 19.1544 171.607 19.441 171.607 19.88H181.607ZM180.855 15.5346C180.266 13.821 179.229 12.292 177.712 11.1392L171.661 19.1008C171.59 19.0466 171.519 18.9738 171.462 18.8934C171.407 18.8156 171.393 18.769 171.398 18.7854L180.855 15.5346ZM177.712 11.1392C175.942 9.79397 173.898 9.36 172.047 9.36V19.36C172.213 19.36 172.23 19.3798 172.144 19.3549C172.046 19.3267 171.864 19.2548 171.661 19.1008L177.712 11.1392ZM172.047 9.36C169.981 9.36 167.952 9.85386 166.12 10.9736L171.334 19.5064C171.422 19.4528 171.606 19.36 172.047 19.36V9.36ZM166.208 10.9211C164.597 11.8605 163.253 13.121 162.203 14.6524L170.451 20.3076C170.68 19.9724 170.937 19.7395 171.246 19.5589L166.208 10.9211ZM162.203 14.6524C161.282 15.9961 160.574 17.4539 160.081 19.0088L169.613 22.0312C169.813 21.3995 170.092 20.8306 170.451 20.3076L162.203 14.6524ZM160.048 19.1155C159.607 20.6219 159.367 22.1617 159.367 23.72H169.367C169.367 23.1983 169.446 22.6047 169.646 21.9245L160.048 19.1155ZM159.367 23.72C159.367 25.2082 159.589 26.6824 160.078 28.1054L169.535 24.8546C169.438 24.5709 169.367 24.2051 169.367 23.72H159.367ZM160.125 28.2356C160.739 29.8734 161.746 31.33 163.163 32.4643L169.41 24.6557C169.422 24.665 169.437 24.6781 169.452 24.6946C169.468 24.711 169.481 24.7272 169.491 24.7412C169.513 24.7718 169.507 24.7739 169.489 24.7244L160.125 28.2356ZM163.261 32.5408C165.012 33.8709 167.03 34.32 168.887 34.32V24.32C168.745 24.32 168.744 24.3027 168.84 24.3308C168.947 24.362 169.122 24.4349 169.312 24.5792L163.261 32.5408ZM185.858 36L180.967 34.9599C180.654 36.4355 181.023 37.9739 181.972 39.1464C182.922 40.3188 184.35 41 185.858 41V36ZM191.898 7.6V2.6C189.538 2.6 187.499 4.25095 187.008 6.55988L191.898 7.6ZM208.298 8.8L205.298 12.8C205.335 12.8279 205.373 12.8552 205.411 12.8821L208.298 8.8ZM210.778 11.84L206.213 13.8797C206.225 13.9065 206.237 13.9331 206.25 13.9597L210.778 11.84ZM211.258 18.6L216.055 20.0108C216.059 19.9984 216.062 19.986 216.066 19.9736L211.258 18.6ZM210.098 21.24L205.799 18.6873C205.779 18.7209 205.759 18.7547 205.74 18.7887L210.098 21.24ZM208.338 23.64L211.94 27.1082C211.961 27.0864 211.981 27.0644 212.002 27.0423L208.338 23.64ZM206.018 25.56L203.275 21.3798C201.389 22.6172 200.565 24.9638 201.264 27.1083L206.018 25.56ZM209.418 36V41C211.019 41 212.524 40.2332 213.464 38.9376C214.405 37.6419 214.668 35.9741 214.172 34.4517L209.418 36ZM200.618 36L195.851 37.5088C196.509 39.5873 198.438 41 200.618 41V36ZM197.858 27.28L202.625 25.7712C201.967 23.6926 200.038 22.28 197.858 22.28V27.28ZM195.498 27.28V22.28C193.135 22.28 191.094 23.935 190.606 26.2477L195.498 27.28ZM193.658 36V41C196.022 41 198.062 39.345 198.55 37.0323L193.658 36ZM203.378 18.16L208.122 19.7411V19.7411L203.378 18.16ZM203.418 15.4L198.675 16.9811C198.713 17.0966 198.756 17.2107 198.803 17.3231L203.418 15.4ZM202.978 14.68L199.443 18.2155C199.533 18.306 199.627 18.393 199.724 18.4763L202.978 14.68ZM198.258 14.4V9.4C195.894 9.4 193.852 11.0562 193.365 13.3699L198.258 14.4ZM196.978 20.48L192.085 19.4499C191.775 20.9244 192.146 22.4603 193.095 23.6304C194.045 24.8005 195.471 25.48 196.978 25.48V20.48ZM190.749 37.0401L196.789 8.64012L187.008 6.55988L180.967 34.9599L190.749 37.0401ZM191.898 12.6H204.378V2.6H191.898V12.6ZM204.378 12.6C205.023 12.6 205.231 12.7493 205.298 12.8L211.298 4.8C209.232 3.25067 206.827 2.6 204.378 2.6V12.6ZM205.411 12.8821C205.753 13.124 206.009 13.4238 206.213 13.8797L215.343 9.8003C214.427 7.74955 213.03 6.02269 211.185 4.71792L205.411 12.8821ZM206.25 13.9597C206.525 14.5481 206.658 15.1444 206.658 15.8H216.658C216.658 13.6823 216.204 11.6385 215.307 9.7203L206.25 13.9597ZM206.658 15.8C206.658 16.2504 206.595 16.7218 206.451 17.2264L216.066 19.9736C216.455 18.6115 216.658 17.2162 216.658 15.8H206.658ZM206.461 17.1892C206.318 17.6764 206.103 18.1744 205.799 18.6873L214.397 23.7927C215.106 22.5989 215.665 21.3369 216.055 20.0108L206.461 17.1892ZM205.74 18.7887C205.461 19.2851 205.11 19.7679 204.674 20.2377L212.002 27.0423C212.952 26.0188 213.775 24.9015 214.456 23.6913L205.74 18.7887ZM204.737 20.1718C204.307 20.6175 203.823 21.02 203.275 21.3798L208.761 29.7402C209.92 28.98 210.982 28.1025 211.94 27.1082L204.737 20.1718ZM201.264 27.1083L204.664 37.5483L214.172 34.4517L210.772 24.0117L201.264 27.1083ZM209.418 31H200.618V41H209.418V31ZM205.385 34.4912L202.625 25.7712L193.091 28.7888L195.851 37.5088L205.385 34.4912ZM197.858 22.28H195.498V32.28H197.858V22.28ZM190.606 26.2477L188.766 34.9677L198.55 37.0323L200.39 28.3123L190.606 26.2477ZM193.658 31H185.858V41H193.658V31ZM201.298 25.48C202.947 25.48 204.192 24.7813 204.885 24.2962L199.151 16.1038C199.311 15.992 200.075 15.48 201.298 15.48V25.48ZM204.885 24.2962C205.757 23.686 206.406 22.9432 206.889 22.246L198.667 16.5539C198.67 16.5501 198.813 16.3407 199.151 16.1038L204.885 24.2962ZM206.889 22.246C207.446 21.4412 207.841 20.5839 208.122 19.7411L198.635 16.5789C198.616 16.6353 198.605 16.6574 198.607 16.6522C198.61 16.6467 198.628 16.6108 198.667 16.5539L206.889 22.246ZM208.122 19.7411C208.469 18.6999 208.618 17.6404 208.618 16.6H198.618C198.618 16.6417 198.615 16.6568 198.616 16.6497C198.617 16.6463 198.618 16.6381 198.621 16.6256C198.624 16.6132 198.629 16.5974 198.635 16.5789L208.122 19.7411ZM208.618 16.6C208.618 15.6967 208.498 14.5923 208.034 13.4769L198.803 17.3231C198.7 17.0757 198.655 16.8779 198.636 16.762C198.617 16.6463 198.618 16.5869 198.618 16.6H208.618ZM208.162 13.8189C207.871 12.9463 207.317 11.8135 206.232 10.8837L199.724 18.4763C199.013 17.8665 198.752 17.2137 198.675 16.9811L208.162 13.8189ZM206.514 11.1445C205.625 10.2561 204.218 9.4 202.378 9.4V19.4C200.965 19.4 199.958 18.7306 199.443 18.2155L206.514 11.1445ZM202.378 9.4H198.258V19.4H202.378V9.4ZM193.365 13.3699L192.085 19.4499L201.871 21.5101L203.151 15.4301L193.365 13.3699ZM196.978 25.48H201.298V15.48H196.978V25.48ZM219.231 7.6V2.6C216.87 2.6 214.831 4.25095 214.34 6.55988L219.231 7.6ZM227.751 7.6L232.659 6.64486C232.202 4.29577 230.144 2.6 227.751 2.6V7.6ZM230.351 20.96L225.443 21.9151C225.836 23.9326 227.423 25.5043 229.444 25.8771C231.465 26.2499 233.509 25.3478 234.595 23.6031L230.351 20.96ZM238.671 7.6V2.6C236.944 2.6 235.34 3.49104 234.427 4.95686L238.671 7.6ZM247.151 7.6L252.042 8.64012C252.355 7.16451 251.986 5.62609 251.037 4.45362C250.088 3.28115 248.66 2.6 247.151 2.6V7.6ZM241.111 36V41C243.472 41 245.511 39.3491 246.002 37.0401L241.111 36ZM233.311 36L228.419 34.9667C228.107 36.4415 228.478 37.9782 229.427 39.1491C230.377 40.3199 231.804 41 233.311 41V36ZM236.471 21.04L241.363 22.0733C241.868 19.6842 240.573 17.2801 238.3 16.3867C236.028 15.4933 233.442 16.372 232.185 18.4651L236.471 21.04ZM230.151 31.56V36.56C231.906 36.56 233.533 35.6395 234.437 34.1349L230.151 31.56ZM226.031 31.56L221.106 32.4214C221.524 34.8142 223.602 36.56 226.031 36.56V31.56ZM224.191 21.04L229.116 20.1786C228.704 17.8207 226.678 16.0858 224.285 16.0409C221.892 15.9959 219.802 17.6534 219.302 19.9941L224.191 21.04ZM220.991 36V41C223.349 41 225.387 39.3521 225.88 37.0459L220.991 36ZM213.191 36L208.3 34.9599C207.986 36.4355 208.356 37.9739 209.305 39.1464C210.254 40.3188 211.682 41 213.191 41V36ZM219.231 12.6H227.751V2.6H219.231V12.6ZM222.843 8.55513L225.443 21.9151L235.259 20.0049L232.659 6.64486L222.843 8.55513ZM234.595 23.6031L242.915 10.2431L234.427 4.95686L226.107 18.3169L234.595 23.6031ZM238.671 12.6H247.151V2.6H238.671V12.6ZM242.26 6.55988L236.22 34.9599L246.002 37.0401L252.042 8.64012L242.26 6.55988ZM241.111 31H233.311V41H241.111V31ZM238.203 37.0333L241.363 22.0733L231.579 20.0067L228.419 34.9667L238.203 37.0333ZM232.185 18.4651L225.865 28.9851L234.437 34.1349L240.757 23.6149L232.185 18.4651ZM230.151 26.56H226.031V36.56H230.151V26.56ZM230.956 30.6986L229.116 20.1786L219.266 21.9014L221.106 32.4214L230.956 30.6986ZM219.302 19.9941L216.102 34.9541L225.88 37.0459L229.08 22.0859L219.302 19.9941ZM220.991 31H213.191V41H220.991V31ZM218.082 37.0401L224.122 8.64012L214.34 6.55988L208.3 34.9599L218.082 37.0401ZM253.243 7.6V2.6C250.883 2.6 248.844 4.25095 248.353 6.55988L253.243 7.6ZM272.203 7.6L277.095 8.63585C277.407 7.16072 277.037 5.62338 276.088 4.45192C275.139 3.28047 273.711 2.6 272.203 2.6V7.6ZM270.763 14.4V19.4C273.126 19.4 275.166 17.7468 275.655 15.4359L270.763 14.4ZM259.603 14.4V9.4C257.238 9.4 255.196 11.0575 254.71 13.3724L259.603 14.4ZM258.763 18.4L253.87 17.3724C253.561 18.8466 253.932 20.3818 254.882 21.5514C255.831 22.7209 257.257 23.4 258.763 23.4V18.4ZM268.283 18.4L273.172 19.4519C273.489 17.975 273.122 16.4335 272.173 15.2583C271.224 14.083 269.794 13.4 268.283 13.4V18.4ZM266.923 24.72V29.72C269.28 29.72 271.316 28.0752 271.812 25.7719L266.923 24.72ZM257.403 24.72V19.72C255.046 19.72 253.008 21.367 252.514 23.6724L257.403 24.72ZM256.443 29.2L251.554 28.1524C251.238 29.6288 251.606 31.1691 252.555 32.3434C253.504 33.5176 254.933 34.2 256.443 34.2V29.2ZM267.963 29.2L272.855 30.2359C273.167 28.7607 272.797 27.2234 271.848 26.0519C270.899 24.8805 269.471 24.2 267.963 24.2V29.2ZM266.523 36V41C268.886 41 270.926 39.3468 271.415 37.0359L266.523 36ZM247.203 36L242.313 34.9599C241.999 36.4355 242.368 37.9739 243.318 39.1464C244.267 40.3188 245.695 41 247.203 41V36ZM253.243 12.6H272.203V2.6H253.243V12.6ZM267.312 6.56415L265.872 13.3641L275.655 15.4359L277.095 8.63585L267.312 6.56415ZM270.763 9.4H259.603V19.4H270.763V9.4ZM254.71 13.3724L253.87 17.3724L263.657 19.4276L264.497 15.4276L254.71 13.3724ZM258.763 23.4H268.283V13.4H258.763V23.4ZM263.395 17.3481L262.035 23.6681L271.812 25.7719L273.172 19.4519L263.395 17.3481ZM266.923 19.72H257.403V29.72H266.923V19.72ZM252.514 23.6724L251.554 28.1524L261.332 30.2476L262.292 25.7676L252.514 23.6724ZM256.443 34.2H267.963V24.2H256.443V34.2ZM263.072 28.1641L261.632 34.9641L271.415 37.0359L272.855 30.2359L263.072 28.1641ZM266.523 31H247.203V41H266.523V31ZM252.094 37.0401L258.134 8.64012L248.353 6.55988L242.313 34.9599L252.094 37.0401ZM15.92 50.6V45.6C13.5594 45.6 11.5204 47.2509 11.0294 49.5599L15.92 50.6ZM32.6 52.08L30.0069 56.355H30.0069L32.6 52.08ZM36.24 56.08L31.7257 58.2297C31.7302 58.2391 31.7347 58.2484 31.7392 58.2578L36.24 56.08ZM36.16 68.6L31.5258 66.7228L36.16 68.6ZM32.56 74.12L36.0955 77.6555C36.1056 77.6455 36.1156 77.6353 36.1256 77.6252L32.56 74.12ZM9.88 79L4.98938 77.9599C4.67555 79.4355 5.04476 80.9739 5.99409 82.1464C6.94342 83.3188 8.37139 84 9.88 84V79ZM24.88 71.44L22.4945 67.0457H22.4945L24.88 71.44ZM27.28 69.4L31.2201 72.4782C31.2354 72.4587 31.2505 72.439 31.2655 72.4193L27.28 69.4ZM28.84 66.4L33.5834 67.9811C33.5871 67.9701 33.5907 67.959 33.5944 67.9479L28.84 66.4ZM28.88 59.96L24.2376 61.817C24.2552 61.8609 24.2734 61.9046 24.2922 61.948L28.88 59.96ZM27.4 58.08L24.5884 62.2146L24.5885 62.2146L27.4 58.08ZM22.28 57.4V52.4C19.9209 52.4 17.8828 54.0489 17.3902 56.356L22.28 57.4ZM19.12 72.2L14.2302 71.156C13.9151 72.632 14.2835 74.1714 15.2328 75.3448C16.1821 76.5182 17.6107 77.2 19.12 77.2V72.2ZM15.92 55.6H26.4V45.6H15.92V55.6ZM26.4 55.6C28.2754 55.6 29.3731 55.9706 30.0069 56.355L35.1931 47.805C32.5735 46.2161 29.5379 45.6 26.4 45.6V55.6ZM30.0069 56.355C30.8194 56.8479 31.355 57.4511 31.7257 58.2297L40.7543 53.9303C39.5251 51.3489 37.6339 49.2855 35.1931 47.805L30.0069 56.355ZM31.7392 58.2578C32.1696 59.1472 32.44 60.2539 32.44 61.68H42.44C42.44 58.9461 41.9104 56.3194 40.7408 53.9022L31.7392 58.2578ZM32.44 61.68C32.44 63.6095 32.1138 65.271 31.5258 66.7228L40.7943 70.4772C41.9128 67.7156 42.44 64.7638 42.44 61.68H32.44ZM31.5258 66.7228C30.9109 68.2408 30.0676 69.5231 28.9944 70.6148L36.1256 77.6252C38.1457 75.5702 39.7025 73.1725 40.7943 70.4772L31.5258 66.7228ZM29.0245 70.5845C27.9593 71.6497 26.7069 72.485 25.2222 73.0942L29.0178 82.3458C31.6931 81.2483 34.0674 79.6837 36.0955 77.6555L29.0245 70.5845ZM25.2222 73.0942C23.7908 73.6814 22.1879 74 20.36 74V84C23.3855 84 26.2892 83.4653 29.0178 82.3458L25.2222 73.0942ZM20.36 74H9.88V84H20.36V74ZM14.7706 80.0401L20.8106 51.6401L11.0294 49.5599L4.98938 77.9599L14.7706 80.0401ZM21.8 77.2C23.7062 77.2 25.5596 76.7603 27.2655 75.8343L22.4945 67.0457C22.3337 67.133 22.1338 67.2 21.8 67.2V77.2ZM27.2655 75.8343C28.8139 74.9937 30.1396 73.8613 31.2201 72.4782L23.3399 66.3218C23.0871 66.6453 22.8128 66.873 22.4945 67.0457L27.2655 75.8343ZM31.2655 72.4193C32.2837 71.0752 33.0496 69.5827 33.5834 67.9811L24.0966 64.8189C23.8838 65.4573 23.6096 65.9648 23.2945 66.3807L31.2655 72.4193ZM33.5944 67.9479C34.1368 66.282 34.4 64.5582 34.4 62.8H24.4C24.4 63.5485 24.2899 64.2247 24.0856 64.8521L33.5944 67.9479ZM34.4 62.8C34.4 61.1908 34.146 59.5372 33.4678 57.972L24.2922 61.948C24.3073 61.9828 24.4 62.2226 24.4 62.8H34.4ZM33.5224 58.103C32.8593 56.4453 31.7593 54.9978 30.2115 53.9454L24.5885 62.2146C24.5029 62.1565 24.4149 62.0763 24.3413 61.9828C24.2695 61.8915 24.241 61.8254 24.2376 61.817L33.5224 58.103ZM30.2116 53.9454C28.5679 52.8277 26.7277 52.4 24.96 52.4V62.4C25.0472 62.4 25.0331 62.4102 24.9477 62.3865C24.8558 62.3608 24.7255 62.3078 24.5884 62.2146L30.2116 53.9454ZM24.96 52.4H22.28V62.4H24.96V52.4ZM17.3902 56.356L14.2302 71.156L24.0098 73.244L27.1698 58.444L17.3902 56.356ZM19.12 77.2H21.8V67.2H19.12V77.2ZM44.8544 50.6V45.6C42.4938 45.6 40.4548 47.2509 39.9638 49.5599L44.8544 50.6ZM63.8144 50.6L68.7059 51.6359C69.0183 50.1607 68.6483 48.6234 67.6989 47.4519C66.7495 46.2805 65.3222 45.6 63.8144 45.6V50.6ZM62.3744 57.4V62.4C64.7366 62.4 66.7765 60.7468 67.2659 58.4359L62.3744 57.4ZM51.2144 57.4V52.4C48.849 52.4 46.8072 54.0575 46.3211 56.3724L51.2144 57.4ZM50.3744 61.4L45.4811 60.3724C45.1715 61.8466 45.5431 63.3818 46.4925 64.5514C47.4419 65.7209 48.868 66.4 50.3744 66.4V61.4ZM59.8944 61.4L64.7825 62.4519C65.1003 60.975 64.7333 59.4335 63.7841 58.2583C62.8348 57.083 61.4051 56.4 59.8944 56.4V61.4ZM58.5344 67.72V72.72C60.8904 72.72 62.9268 71.0752 63.4225 68.7719L58.5344 67.72ZM49.0144 67.72V62.72C46.6567 62.72 44.6194 64.367 44.1254 66.6724L49.0144 67.72ZM48.0544 72.2L43.1654 71.1524C42.849 72.6288 43.2168 74.1691 44.166 75.3434C45.1153 76.5176 46.5444 77.2 48.0544 77.2V72.2ZM59.5744 72.2L64.4659 73.2359C64.7783 71.7607 64.4083 70.2234 63.4589 69.0519C62.5096 67.8805 61.0822 67.2 59.5744 67.2V72.2ZM58.1344 79V84C60.4966 84 62.5365 82.3468 63.0259 80.0359L58.1344 79ZM38.8144 79L33.9238 77.9599C33.6099 79.4355 33.9791 80.9739 34.9285 82.1464C35.8778 83.3188 37.3058 84 38.8144 84V79ZM44.8544 55.6H63.8144V45.6H44.8544V55.6ZM58.9229 49.5641L57.4829 56.3641L67.2659 58.4359L68.7059 51.6359L58.9229 49.5641ZM62.3744 52.4H51.2144V62.4H62.3744V52.4ZM46.3211 56.3724L45.4811 60.3724L55.2676 62.4276L56.1076 58.4276L46.3211 56.3724ZM50.3744 66.4H59.8944V56.4H50.3744V66.4ZM55.0063 60.3481L53.6463 66.6681L63.4225 68.7719L64.7825 62.4519L55.0063 60.3481ZM58.5344 62.72H49.0144V72.72H58.5344V62.72ZM44.1254 66.6724L43.1654 71.1524L52.9434 73.2476L53.9034 68.7676L44.1254 66.6724ZM48.0544 77.2H59.5744V67.2H48.0544V77.2ZM54.6829 71.1641L53.2429 77.9641L63.0259 80.0359L64.4659 73.2359L54.6829 71.1641ZM58.1344 74H38.8144V84H58.1344V74ZM43.705 80.0401L49.745 51.6401L39.9638 49.5599L33.9238 77.9599L43.705 80.0401ZM69.0622 50.6V45.6C66.7016 45.6 64.6626 47.2509 64.1716 49.5599L69.0622 50.6ZM76.8622 50.6L81.7525 51.6415C82.0668 50.1657 81.6979 48.6269 80.7485 47.4542C79.7992 46.2814 78.371 45.6 76.8622 45.6V50.6ZM72.2622 72.2L67.3719 71.1585C67.0576 72.6343 67.4265 74.1731 68.3758 75.3458C69.3252 76.5186 70.7533 77.2 72.2622 77.2V72.2ZM84.2222 72.2L89.1137 73.2359C89.4261 71.7607 89.0561 70.2234 88.1067 69.0519C87.1574 67.8805 85.73 67.2 84.2222 67.2V72.2ZM82.7822 79V84C85.1444 84 87.1843 82.3468 87.6737 80.0359L82.7822 79ZM63.0222 79L58.1316 77.9599C57.8177 79.4355 58.1869 80.9739 59.1363 82.1464C60.0856 83.3188 61.5136 84 63.0222 84V79ZM69.0622 55.6H76.8622V45.6H69.0622V55.6ZM71.9719 49.5585L67.3719 71.1585L77.1525 73.2415L81.7525 51.6415L71.9719 49.5585ZM72.2622 77.2H84.2222V67.2H72.2622V77.2ZM79.3307 71.1641L77.8907 77.9641L87.6737 80.0359L89.1137 73.2359L79.3307 71.1641ZM82.7822 74H63.0222V84H82.7822V74ZM67.9128 80.0401L73.9528 51.6401L64.1716 49.5599L58.1316 77.9599L67.9128 80.0401ZM92.8403 50.6V45.6C90.4797 45.6 88.4408 47.2509 87.9497 49.5599L92.8403 50.6ZM100.64 50.6L105.531 51.6401C105.845 50.1645 105.476 48.6261 104.526 47.4536C103.577 46.2812 102.149 45.6 100.64 45.6V50.6ZM94.6003 79V84C96.9609 84 98.9999 82.3491 99.4909 80.0401L94.6003 79ZM86.8003 79L81.9097 77.9599C81.5959 79.4355 81.9651 80.9739 82.9144 82.1464C83.8637 83.3188 85.2917 84 86.8003 84V79ZM92.8403 55.6H100.64V45.6H92.8403V55.6ZM95.7497 49.5599L89.7097 77.9599L99.4909 80.0401L105.531 51.6401L95.7497 49.5599ZM94.6003 74H86.8003V84H94.6003V74ZM91.6909 80.0401L97.7309 51.6401L87.9497 49.5599L81.9097 77.9599L91.6909 80.0401ZM113.616 50.6V45.6C111.774 45.6 110.081 46.6127 109.21 48.2358L113.616 50.6ZM120.776 50.6L125.745 50.0471C125.463 47.5152 123.323 45.6 120.776 45.6V50.6ZM123.936 79V84C125.358 84 126.713 83.3942 127.662 82.3343C128.61 81.2744 129.062 79.8607 128.905 78.4471L123.936 79ZM116.016 79L111.022 79.2515C111.156 81.9118 113.352 84 116.016 84V79ZM115.736 73.44L120.729 73.1885C120.595 70.5282 118.399 68.44 115.736 68.44V73.44ZM108.936 73.44V68.44C106.994 68.44 105.229 69.5636 104.406 71.322L108.936 73.44ZM106.336 79V84C108.277 84 110.043 82.8764 110.865 81.118L106.336 79ZM98.3756 79L93.9699 76.6358C93.1384 78.1854 93.182 80.0579 94.0849 81.567C94.9877 83.0761 96.617 84 98.3756 84V79ZM115.616 68.24V73.24C116.973 73.24 118.272 72.688 119.215 71.7107C120.157 70.7334 120.662 69.415 120.612 68.0583L115.616 68.24ZM115.296 59.44L120.292 59.2583C120.208 56.9508 118.555 55.0009 116.293 54.5404C114.03 54.08 111.746 55.2288 110.767 57.3199L115.296 59.44ZM111.176 68.24L106.647 66.1199C105.922 67.6686 106.039 69.4804 106.957 70.9233C107.874 72.3661 109.466 73.24 111.176 73.24V68.24ZM113.616 55.6H120.776V45.6H113.616V55.6ZM115.806 51.1529L118.966 79.5529L128.905 78.4471L125.745 50.0471L115.806 51.1529ZM123.936 74H116.016V84H123.936V74ZM121.009 78.7485L120.729 73.1885L110.742 73.6915L111.022 79.2515L121.009 78.7485ZM115.736 68.44H108.936V78.44H115.736V68.44ZM104.406 71.322L101.806 76.882L110.865 81.118L113.465 75.558L104.406 71.322ZM106.336 74H98.3756V84H106.336V74ZM102.781 81.3642L118.021 52.9642L109.21 48.2358L93.9699 76.6358L102.781 81.3642ZM120.612 68.0583L120.292 59.2583L110.299 59.6217L110.619 68.4217L120.612 68.0583ZM110.767 57.3199L106.647 66.1199L115.704 70.3601L119.824 61.5601L110.767 57.3199ZM111.176 73.24H115.616V63.24H111.176V73.24Z" fill="white" mask="url(#path-1-outside-1_2675_3889)"/>
</g>
<defs>
<filter id="filter0_d_2675_3889" x="0.879883" y="0" width="276.323" height="90" filterUnits="userSpaceOnUse" color-interpolation-filters="sRGB">
<feFlood flood-opacity="0" result="BackgroundImageFix"/>
<feColorMatrix in="SourceAlpha" type="matrix" values="0 0 0 0 0 0 0 0 0 0 0 0 0 0 0 0 0 0 127 0" result="hardAlpha"/>
<feOffset dx="-4" dy="4"/>
<feComposite in2="hardAlpha" operator="out"/>
<feColorMatrix type="matrix" values="0 0 0 0 0.933333 0 0 0 0 0.670588 0 0 0 0 0.537255 0 0 0 1 0"/>
<feBlend mode="normal" in2="BackgroundImageFix" result="effect1_dropShadow_2675_3889"/>
<feBlend mode="normal" in="SourceGraphic" in2="effect1_dropShadow_2675_3889" result="shape"/>
</filter>
</defs>
</svg>
